<svg width="363" height="82" viewBox="0 0 363 82" fill="none" xmlns="http://www.w3.org/2000/svg">
<g filter="url(#filter0_d_0_1)">
<path d="M5 73H69.5V42H201V73H308.5C348.5 48.6 358.5 14.8333 358.5 1H5V73Z" fill="#BBEAFF"/>
<path d="M5 73H69.5V42H201V73H308.5C348.5 48.6 358.5 14.8333 358.5 1H5V73Z" stroke="black"/>
</g>
<g filter="url(#filter1_f_0_1)">
<path d="M344 10H20C20 16.2477 27.0358 21.389 30.5537 23.1787C157.199 33.7216 283.844 27.5716 331.336 23.1787C341.045 17.3215 343.824 11.9524 344 10Z" fill="white" fill-opacity="0.24"/>
</g>
<defs>
<filter id="filter0_d_0_1" x="0.5" y="0.5" width="362.5" height="81" filterUnits="userSpaceOnUse" color-interpolation-filters="sRGB">
<feFlood flood-opacity="0" result="BackgroundImageFix"/>
<feColorMatrix in="SourceAlpha" type="matrix" values="0 0 0 0 0 0 0 0 0 0 0 0 0 0 0 0 0 0 127 0" result="hardAlpha"/>
<feOffset dy="4"/>
<feGaussianBlur stdDeviation="2"/>
<feComposite in2="hardAlpha" operator="out"/>
<feColorMatrix type="matrix" values="0 0 0 0 0 0 0 0 0 0 0 0 0 0 0 0 0 0 0.25 0"/>
<feBlend mode="normal" in2="BackgroundImageFix" result="effect1_dropShadow_0_1"/>
<feBlend mode="normal" in="SourceGraphic" in2="effect1_dropShadow_0_1" result="shape"/>
</filter>
<filter id="filter1_f_0_1" x="16" y="6" width="332" height="27" filterUnits="userSpaceOnUse" color-interpolation-filters="sRGB">
<feFlood flood-opacity="0" result="BackgroundImageFix"/>
<feBlend mode="normal" in="SourceGraphic" in2="BackgroundImageFix" result="shape"/>
<feGaussianBlur stdDeviation="2" result="effect1_foregroundBlur_0_1"/>
</filter>
</defs>
</svg>
